<svg width="31" height="31" viewBox="0 0 31 31" fill="none" xmlns="http://www.w3.org/2000/svg">
<path d="M21.5498 5.92498C22.3432 5.92486 23.1069 6.22652 23.6861 6.76878C24.2653 7.31104 24.6165 8.0533 24.6686 8.84498L24.6748 9.04998V20.925H26.5498C27.0313 20.9252 27.4943 21.1107 27.8428 21.443C28.1913 21.7753 28.3986 22.2289 28.4217 22.7099C28.4449 23.1908 28.2821 23.6623 27.9671 24.0265C27.6521 24.3907 27.2091 24.6198 26.7298 24.6662L26.5498 24.675H24.6748V26.55C24.6746 27.0315 24.4891 27.4945 24.1568 27.843C23.8245 28.1915 23.3709 28.3987 22.8899 28.4219C22.4089 28.445 21.9375 28.2822 21.5733 27.9673C21.2091 27.6523 20.98 27.2093 20.9336 26.73L20.9248 26.55V9.67498H12.1748V5.92498H21.5498ZM7.7998 2.17498C8.29709 2.17498 8.774 2.37253 9.12563 2.72416C9.47726 3.07579 9.6748 3.5527 9.6748 4.04998V20.925H18.4248V24.675H9.0498C8.221 24.675 7.42615 24.3457 6.8401 23.7597C6.25404 23.1736 5.9248 22.3788 5.9248 21.55V9.67498H4.0498C3.55252 9.67498 3.07561 9.47744 2.72398 9.12581C2.37235 8.77418 2.1748 8.29726 2.1748 7.79998C2.1748 7.3027 2.37235 6.82579 2.72398 6.47416C3.07561 6.12253 3.55252 5.92498 4.0498 5.92498H5.9248V4.04998C5.9248 3.5527 6.12235 3.07579 6.47398 2.72416C6.82561 2.37253 7.30252 2.17498 7.7998 2.17498Z" fill="black"/>
</svg>
